<?xml version="1.0" encoding="UTF-8"?><svg id="Capa_1" xmlns="http://www.w3.org/2000/svg" viewBox="0 0 1920 484"><defs><style>.cls-1{fill:#75787b;}</style></defs><path class="cls-1" d="m1765.24,216.7c0-19.39,16.73-35.06,37.56-35.06s37.56,15.67,37.56,35.06-16.94,34.87-37.56,34.87-37.56-15.75-37.56-34.87Zm6.2,0c0,15.86,13.95,29.05,31.17,29.05s31.28-13.19,31.28-29.05-13.93-29.05-31.28-29.05-31.17,13-31.17,29.05Zm48.52,18.79h-8.54l-5.63-13.25c-.65-1.25-.65-1.44-2.58-1.44h-6.64v14.69h-7.29v-38c5.77-.38,9.85-.57,13.93-.57,8.21,0,15.67,2.48,15.67,11.94,0,4.57-2.34,8.21-6.42,10.06,3.05,5.41,7.32,16.1,7.51,16.57Zm-23.39-31.79v10.71h7.29c4.51,0,7.72-1.25,7.72-4.95,0-4.71-2.77-5.96-8.13-5.96-2.4,0-4.54,0-6.88.19Z"/><rect class="cls-1" x="1335.48" y="117.07" width="45.78" height="235.05"/><path class="cls-1" d="m1230.75,217.62c-19.6,0-32.38,7.52-32.38,28.12v36.28c0,22.6,7.21,36.97,31.73,36.97,30.74,0,34.99-27.45,34.99-52.64s-3.61-48.72-34.35-48.72m9.82,135.39c-19.3,0-29.78-4.56-40.56-19.94h-.66v83.13h-46.1v-230.96h38.92l2.94,19.31h.65c11.78-16.99,26.17-22.91,46.44-22.91,50.03,0,69.65,39.23,69.65,84.06s-19.31,87.31-71.28,87.31"/><path class="cls-1" d="m1671.41,355.95c-21.59,54.61-32.04,67.04-71.95,67.04-6.55,0-13.41-.32-24.87-1.62v-38.26c2.97.3,8.52.96,18.32.96,17.65,0,21.93-4.57,27.8-19.29l7.53-18.64-64.43-160.9h50.01l37.96,113.47h.66l36.94-113.47h49.38l-67.35,170.71Z"/><path class="cls-1" d="m1553.66,310.79v-7.09s0-.06,0-.09v-55.89c0-47.09-17.99-66.07-66.07-66.07-29.09,0-52.99,6.54-78.81,19.61l14.37,31.41c18.34-10.14,38.94-17,60.19-17,16.67,0,24.19,4.9,24.19,20.28v7.81c-40.86-.3-102.67,5.26-102.67,59.55,0,31.72,21.91,50.03,52.98,50.03,20.14,0,38.64-6.77,54.61-19.4.11,1,.26,1.84.42,2.37,4.99,15.81,32.17,16.92,52.7,15.81l1.66-34.95c-8.6-.28-13.59-1.39-13.59-6.38Zm-45.11-1.6c-11.13,7.84-23.24,13.07-37.29,13.07s-21.58-8.5-21.58-22.23c0-29.76,37.27-30.09,58.87-30.09v39.25Z"/><path class="cls-1" d="m678.25,217.93c-28.78,0-37.63,17.34-37.63,49.4s9.17,50.69,37.95,50.69,37.28-17.66,37.28-50.69-8.83-49.4-37.59-49.4m0,135.07c-56.89,0-84.37-34.68-84.37-85.68,0-47.73,24.53-85.69,84.37-85.69,55.27,0,84.03,32.71,84.03,85.69s-26.81,85.68-84.03,85.68"/><polygon class="cls-1" points="448.01 131.29 448.01 172.16 509.47 172.16 509.47 352.12 557.88 352.12 557.88 172.16 619.34 172.16 619.34 131.29 448.01 131.29"/><path class="cls-1" d="m870.05,314.19c-23.56.58-25.81-2.44-25.97-16.44,0-.73-.01-1.49-.01-2.28v-73.28h37.93v-36.95h-37.93v-43.48h-45.47v43.48h-27.14v36.95h26.82v78.17c0,39.56,10.8,51.99,55.27,51.99,8.17,0,16.01-.99,28.44-2.29v-36.67c-3.42.32-6.23.66-11.94.8Z"/><rect class="cls-1" x="1081.6" y="117.07" width="45.78" height="235.05"/><path class="cls-1" d="m1049.53,310.79v-7.09s0-.06,0-.09v-55.89c0-47.09-17.99-66.07-66.07-66.07-29.09,0-52.99,6.54-78.81,19.61l14.37,31.41c18.34-10.14,38.94-17,60.19-17,16.67,0,24.19,4.9,24.19,20.28v7.81c-40.86-.3-102.67,5.26-102.67,59.55,0,31.72,21.91,50.03,52.98,50.03,20.14,0,38.64-6.77,54.61-19.4.11,1,.26,1.84.42,2.37,4.99,15.81,32.17,16.92,52.7,15.81l1.66-34.95c-8.6-.28-13.59-1.39-13.59-6.38Zm-45.11-1.6c-11.13,7.84-23.24,13.07-37.29,13.07s-21.58-8.5-21.58-22.23c0-29.76,37.27-30.09,58.87-30.09v39.25Z"/><path class="cls-1" d="m174.02,123.77c6.37-3.68,6.37-9.7,0-13.38l-82.79-47.8c-6.37-3.68-11.59-.67-11.59,6.69v95.6c0,7.36,5.22,10.37,11.59,6.69l82.79-47.8Z"/><path class="cls-1" d="m174.02,246.13c6.37-3.68,6.37-9.7,0-13.38l-82.79-47.8c-6.37-3.68-11.59-.67-11.59,6.69v95.6c0,7.36,5.22,10.37,11.59,6.69l82.79-47.8Z"/><path class="cls-1" d="m174.02,368.5c6.37-3.68,6.37-9.7,0-13.38l-82.79-47.8c-6.37-3.68-11.59-.67-11.59,6.69v95.6c0,7.36,5.22,10.37,11.59,6.69l82.79-47.8Z"/><path class="cls-1" d="m185.61,226.06c0,7.36,5.22,10.37,11.59,6.69l82.79-47.8c6.37-3.68,6.37-9.7,0-13.38l-82.79-47.8c-6.37-3.68-11.59-.67-11.59,6.69v95.6Z"/><path class="cls-1" d="m185.61,348.42c0,7.36,5.22,10.37,11.59,6.69l82.79-47.8c6.37-3.68,6.37-9.7,0-13.38l-82.79-47.8c-6.37-3.68-11.59-.67-11.59,6.69v95.6Z"/><path class="cls-1" d="m291.58,287.24c0,7.36,5.22,10.37,11.59,6.69l82.79-47.8c6.37-3.68,6.37-9.7,0-13.38l-82.79-47.8c-6.37-3.68-11.59-.67-11.59,6.69v95.6Z"/></svg>