<?xml version="1.0" encoding="utf-8"?>
<!-- Generator: Adobe Illustrator 27.7.0, SVG Export Plug-In . SVG Version: 6.00 Build 0)  -->
<svg version="1.1" id="Capa_1" xmlns="http://www.w3.org/2000/svg" xmlns:xlink="http://www.w3.org/1999/xlink" x="0px" y="0px"
	 viewBox="0 0 2000 1545.5" style="enable-background:new 0 0 2000 1545.5;" xml:space="preserve">
<style type="text/css">
	.st0{fill:#010101;}
	.st1{fill:#888989;}
	.st2{fill:#868686;}
	.st3{fill:#858585;}
	.st4{fill:#8C8C8C;}
	.st5{fill:url(#SVGID_1_);}
	.st6{fill:url(#SVGID_00000085220281264476198540000013872273211997192353_);}
	.st7{fill:url(#SVGID_00000135670849317927729470000014930628707329234104_);}
</style>
<path class="st0" d="M238.9,1020.5v33.3h-54.2v139.3h-37.6v-139.3H92.9v-33.3H238.9L238.9,1020.5z"/>
<path class="st0" d="M288.7,1071.3c35.3,0,66.9,21.2,66.9,62.6s-31.6,62.6-66.9,62.6s-66.9-21.2-66.9-62.6
	S253.6,1071.3,288.7,1071.3L288.7,1071.3z M288.7,1101.9c-20,0-31,13.8-31,32s11.1,32,31,32c19.9,0,31.3-13.8,31.3-32
	S308.8,1101.9,288.7,1101.9z"/>
<path class="st0" d="M420.6,1032.1v42.7H459v28.8h-38.4v46.4c0,12.3,6.3,17.8,19.4,17.8c8.1,0,14.9-1.2,21.9-3.9v27.6
	c-9.3,3.2-20.4,5.2-32.5,5.2c-23.5,0-43.7-10.6-43.7-40v-53h-20.4v-28.8h20.4v-34.5L420.6,1032.1L420.6,1032.1z"/>
<path class="st0" d="M599,1170.5c2,0,4.3-0.2,6.6-1v22.4c-5.5,2-12.6,3.4-19.4,3.4c-12.4,0-21.7-4.4-26.8-13.3
	c-11.8,9.1-25.7,14.6-43.7,14.6c-22.7,0-42.4-12.8-42.4-36.3c0-30.1,29-39.4,53.2-39.4c9.6,0,20.2,1.2,28.7,3.2v-4.2
	c0-11.8-9.6-20-28.5-20c-16.7,0-31.6,4.4-42.9,8.9v-29.6c9.9-3.2,28.3-7.9,47-7.9c36.3,0,59.5,14.6,59.5,53.5v37.7
	C590.4,1168.8,594.5,1170.6,599,1170.5L599,1170.5z M509.2,1157.7c0,8.9,8.3,14.6,18.9,14.6c9.9,0,19.2-2.7,27.2-9.6v-18.5
	c-5.3-1.2-13.4-2.7-20.7-2.7C521.8,1141.4,509.2,1145.6,509.2,1157.7L509.2,1157.7z"/>
<path class="st0" d="M657.8,1013.2v180h-35.1v-180H657.8z"/>
<path class="st0" d="M817.4,1020.1c17.7,0,35.3,3.7,50.4,11.1v35.3c-11.4-8.6-27.8-13.5-44.1-13.5c-31,0-62.3,17.2-62.3,58.9
	c-0.2,38,31.6,54.7,62.3,54.7c18.2,0,34.8-5,45.4-14.3v36.3c-15.1,7.1-32.5,11.1-51.2,11.1c-47.2,0-95.4-27.6-95.4-87.8
	C722.8,1048.7,770.2,1020.1,817.4,1020.1L817.4,1020.1z"/>
<path class="st0" d="M978.4,1077.7h36.3l-53.7,132.7c-13.6,33-32.5,43.2-52.2,43.2c-6.3,0-12.6-1.2-18.9-2.7v-28.4
	c4.8,1,9.6,1.7,14.4,1.7c12.6,0,22.2-8.4,28.7-25.9l0.2-0.5l-57.3-120.1h37.1l35.3,79.9l30-79.9L978.4,1077.7z"/>
<path class="st0" d="M1067.2,1023.5v66.8c7.6-8.4,20.7-16,39.9-16c38.4,0,59,30.3,59,62.6c0,32.3-20.7,62.6-59,62.6
	c-22.4,0-36.3-10.1-43.9-20.7v17.2h-31v-172.6L1067.2,1023.5L1067.2,1023.5z M1098.4,1103.1c-15.4,0-26.8,9.4-31.6,19.7v28.1
	c4.8,10.3,16.2,19.7,31.6,19.7c19.9,0,31.8-15.3,31.8-33.8C1130.3,1118.4,1118.4,1103.1,1098.4,1103.1L1098.4,1103.1z"/>
<path class="st0" d="M1244.5,1074.3c50.2,0,66.4,38.7,58.3,73.7h-85.3c4,17.2,22.7,24.4,42.6,24.4c13.9,0,26.2-2.7,36.6-7.1v26.9
	c-11.4,4.7-26.2,7.4-44.4,7.4c-38.4,0-70.2-21.5-70.2-62.6C1182.2,1092.3,1217.2,1074.3,1244.5,1074.3L1244.5,1074.3z
	 M1245.8,1100.4c-14.9,0-28,9.1-28.5,25.4h54C1272.6,1117.6,1267.8,1100.4,1245.8,1100.4z"/>
<path class="st0" d="M1407.1,1075.3v33.3c-19.2-3.2-37.6,3.9-44.9,18v69.5h-35.1v-118.4h31v17.8
	C1366.7,1082.5,1384.3,1073.1,1407.1,1075.3L1407.1,1075.3z"/>
<path class="st0" d="M1482.1,1121.6v28.8H1425v-28.8H1482.1z"/>
<path class="st0" d="M1576.8,1020.1c20.9,0,42.1,5,57.3,13.3v34.5c-14.9-10.3-34.8-15.5-54.5-15.3c-19.2,0.2-28.7,5.4-28.7,16
	c0,29.9,96.6,18.7,96.6,80.2c0,38.7-31.8,50.8-68.9,50.8c-24.5,0-47.2-5.7-65.4-15.5v-35.3c20.2,13.1,42.4,18.3,62.6,18.3
	s33.1-4.2,33.1-16.5c0-32.3-96.6-20.2-96.6-81.4C1512.3,1035.8,1542,1020.1,1576.8,1020.1L1576.8,1020.1z"/>
<path class="st0" d="M1724.4,1074.3c50.2,0,66.4,38.7,58.3,73.7h-85.3c4,17.2,22.7,24.4,42.6,24.4c13.9,0,26.2-2.7,36.6-7.1v26.9
	c-11.4,4.7-26.2,7.4-44.4,7.4c-38.4,0-70.2-21.5-70.2-62.6C1662,1092.3,1697.1,1074.3,1724.4,1074.3L1724.4,1074.3z M1725.7,1100.4
	c-14.9,0-28,9.1-28.5,25.4h54C1752.4,1117.6,1747.6,1100.4,1725.7,1100.4z"/>
<path class="st0" d="M1868.5,1074c13.4,0,26.5,3,37.3,8.6v30.1c-8.6-5.4-20.7-8.9-32.3-8.9c-19.2,0-37.6,9.1-37.6,33
	c0,22.7,18.2,33,37.1,33c12.9,0,25.2-3.4,34.1-8.6v30.3c-11.8,5-25.5,7.9-40.9,7.9c-33.1,0-66.1-18.7-66.1-60.9
	C1800.1,1093.3,1834.9,1074,1868.5,1074L1868.5,1074z"/>
<path class="st0" d="M353.8,1266.4h23.7c13.2,0,24.3,2.1,33,7.8c11.3,7.3,17.7,19.9,17.7,34.6c0,13.9-5.7,25.9-15.5,33.4
	c-8.8,6.7-20.6,9.6-37,9.6h-21.8L353.8,1266.4L353.8,1266.4z M376.9,1338.4c11.2,0,19.2-1.7,25.3-6.1c6.6-4.8,11-13.1,11-23.3
	s-4.7-19-11.8-23.8c-6.7-4.6-15.3-5.4-24.6-5.4h-8v58.7H376.9L376.9,1338.4z"/>
<path class="st0" d="M443,1349.1c-4-3-6.5-7.5-6.5-13.3c0-6.4,3.1-11.1,7.4-14c4.4-3,10.2-4,16.3-4c4,0,7.7,0.5,11.2,1.3v-3.4
	c0-3.5-0.9-6.1-2.8-7.9c-2.1-1.9-5.4-2.8-9.8-2.8c-6.9,0-13,2.4-17.4,5.2v-13c4.6-2.6,11.3-4.7,19.6-4.7c7.5,0,14.3,1.7,18.6,5.4
	c3.9,3.3,6.1,8.3,6.1,15.4v22.3c0,3.2,1.2,5.4,4,5.4c1.1,0,2.2-0.3,3.2-0.8v11.2c-1.7,0.8-4.2,1.4-7.1,1.4c-4.7,0-9.2-1.7-11.9-5.3
	h-0.2c-3.5,2.8-9.6,5.5-17.2,5.5C451.8,1353.1,446.9,1352,443,1349.1L443,1349.1z M471.4,1338.1v-9.8c-2.6-0.7-6.1-1.2-8.9-1.2
	c-5.9,0-11.7,1.9-11.7,7.5c0,4.7,4.1,6.9,9.2,6.9C464.4,1341.7,468.6,1340.1,471.4,1338.1L471.4,1338.1z"/>
<path class="st0" d="M507.8,1330.8v-24.9h-10.1v-12.1h10.1v-15.4l14.3-2.5v17.9h16.4v12.1h-16.4v22.9c0,6.5,1.2,11.9,7.7,11.9
	c3.1,0,6.4-1.2,8.7-2.5v12.1c-2.6,1.6-7.3,2.7-11.8,2.7c-5,0-10.5-1.6-14.1-5.7C509.6,1344.2,507.8,1339.3,507.8,1330.8
	L507.8,1330.8z"/>
<path class="st0" d="M552.9,1349.1c-4-3-6.5-7.5-6.5-13.3c0-6.4,3.1-11.1,7.4-14c4.4-3,10.2-4,16.3-4c4,0,7.7,0.5,11.2,1.3v-3.4
	c0-3.5-0.9-6.1-2.8-7.9c-2.1-1.9-5.4-2.8-9.8-2.8c-6.9,0-13,2.4-17.4,5.2v-13c4.6-2.6,11.3-4.7,19.6-4.7c7.5,0,14.3,1.7,18.6,5.4
	c3.9,3.3,6.1,8.3,6.1,15.4v22.3c0,3.2,1.2,5.4,4,5.4c1.1,0,2.2-0.3,3.2-0.8v11.2c-1.7,0.8-4.2,1.4-7.1,1.4c-4.7,0-9.2-1.7-11.9-5.3
	h-0.2c-3.5,2.8-9.6,5.5-17.2,5.5C561.7,1353.1,556.8,1352,552.9,1349.1L552.9,1349.1z M581.3,1338.1v-9.8c-2.6-0.7-6.1-1.2-8.9-1.2
	c-5.9,0-11.7,1.9-11.7,7.5c0,4.7,4.1,6.9,9.2,6.9C574.3,1341.7,578.5,1340.1,581.3,1338.1L581.3,1338.1z"/>
<path class="st0" d="M711.6,1300.6l-11.9,31.5l19.3,19.4l-0.1,0.2h-17.8l-8.1-8.1c-4.9,5.4-12.8,9.4-24.5,9.4
	c-20.2,0-29.8-12.1-29.8-24.6c0-9.4,5.8-16.9,15.7-22.1l1.2-0.6l-1.7-1.9c-5-5-8.8-10.7-8.8-17.9c0-12,10-20.8,23.5-20.8
	c13.5,0,23.4,9.4,23.4,20.8c0,8.4-5,14.9-11.9,19.2l-4.1,2.7l13.7,13.8l7.5-21L711.6,1300.6L711.6,1300.6z M683.2,1333.6l-19-19.2
	l-3.2,1.7c-5.8,3.1-8.1,7.7-8.1,11.9c0,6.3,5,12.6,16,12.6C676,1340.6,680.5,1337.7,683.2,1333.6L683.2,1333.6z M664.1,1296l3.1,3.2
	l4.2-3.1c3.8-2.6,6.3-5.5,6.3-9.8c0-5.3-4-8.7-9.4-8.7c-5.8,0-9.2,3.9-9.2,8.6C659,1289.5,660.7,1292.3,664.1,1296L664.1,1296z"/>
<path class="st0" d="M767.3,1377.7H753v-83.9h14.1v3.3l0.2,0.1c3.9-2.7,9.1-4.7,15.4-4.7c15.2,0,27.7,11.9,27.7,29.9
	c0,18-13.4,30.6-30.3,30.6c-5.2,0-9.6-1.2-12.7-2.7l-0.2,0.1L767.3,1377.7L767.3,1377.7z M779.3,1341.1c10.4,0,16.8-7.7,16.8-17.9
	c0-10.2-6.4-18.5-16.5-18.5c-4.5,0-8.9,1.6-12.4,4.2v29C770.2,1339.6,774.5,1341.1,779.3,1341.1L779.3,1341.1z"/>
<path class="st0" d="M823.7,1293.8h14.1v8.1l0.2,0.1c4-5.7,10-8.8,16.8-8.8c1.3,0,2.6,0.1,3.9,0.5v13.7c-1.4-0.3-2.8-0.6-4.7-0.6
	c-6.7,0-12.1,3-16.1,8.6v36.4h-14.3L823.7,1293.8L823.7,1293.8z"/>
<path class="st0" d="M895.6,1292.4c18,0,31.5,13.2,31.5,30.3s-13.4,30.3-31.5,30.3s-31.5-13.2-31.5-30.3S877.6,1292.4,895.6,1292.4z
	 M895.6,1340.5c9.9,0,17.2-7.8,17.2-17.8s-7.3-17.8-17.2-17.8s-17.2,7.8-17.2,17.8S885.7,1340.5,895.6,1340.5z"/>
<path class="st0" d="M986.4,1348.7c-5.3,3-12,4.4-18.2,4.4c-18.6,0-32-12.7-32-30.1c0-17.3,14.6-30.5,32.7-30.5
	c6.3,0,12,1.6,16.5,3.8v13.9c-5-3.3-10.7-5.3-16.3-5.3c-11.2,0-18.6,7.9-18.6,18s7.8,17.7,18.8,17.7c6.1,0,12.4-2.1,16.9-5.8
	L986.4,1348.7L986.4,1348.7z"/>
<path class="st0" d="M1010.8,1326.6c1.7,9.7,9.4,14.6,19.2,14.6c7.3,0,14.1-2.7,19.8-6.7v13.1c-5.4,3.4-13.6,5.4-21.2,5.4
	c-18.6,0-32.3-12-32.3-30.2s13.8-30.4,29.6-30.4c14.4,0,27.1,9.8,27.1,28.4c0,1.9-0.1,4.2-0.3,5.8L1010.8,1326.6L1010.8,1326.6z
	 M1010.8,1316.7h28.8c-1.1-8.7-7.4-12.7-13.9-12.7S1012.5,1308,1010.8,1316.7L1010.8,1316.7z"/>
<path class="st0" d="M1065.4,1335c7.1,4.2,15.9,6.4,22.3,6.4c6.4,0,10.6-2,10.6-6.1c0-5.9-7.4-5.7-16.3-7.4
	c-11.1-2.3-18.7-6.4-18.7-16.8c0.1-12.1,10.7-18.5,24.6-18.5c6.9,0,15.2,1.6,21.5,4.6v13.1c-7.1-4.1-15.5-6-21.6-6
	c-6,0-10,1.7-10,5.7c0,5.5,7.2,5.3,15.9,7.2c11.1,2.2,19.1,6,19.1,17.1c-0.1,12.5-11,19-25.3,19c-7.2,0-15.7-1.6-22-4.5V1335
	L1065.4,1335z"/>
<path class="st0" d="M1124.7,1335c7.1,4.2,15.9,6.4,22.3,6.4c6.4,0,10.6-2,10.6-6.1c0-5.9-7.4-5.7-16.3-7.4
	c-11.1-2.3-18.7-6.4-18.7-16.8c0.1-12.1,10.7-18.5,24.6-18.5c6.9,0,15.2,1.6,21.5,4.6v13.1c-7.1-4.1-15.5-6-21.6-6
	c-6,0-10,1.7-10,5.7c0,5.5,7.2,5.3,15.9,7.2c11.1,2.2,19.1,6,19.1,17.1c-0.1,12.5-11,19-25.3,19c-7.2,0-15.7-1.6-22-4.5V1335
	L1124.7,1335z"/>
<path class="st0" d="M1209.7,1335c7.1,4.2,15.9,6.4,22.3,6.4s10.6-2,10.6-6.1c0-5.9-7.4-5.7-16.3-7.4c-11.1-2.3-18.7-6.4-18.7-16.8
	c0.1-12.1,10.7-18.5,24.6-18.5c6.9,0,15.2,1.6,21.5,4.6v13.1c-7.1-4.1-15.5-6-21.6-6c-6,0-10,1.7-10,5.7c0,5.5,7.2,5.3,15.9,7.2
	c11.1,2.2,19.1,6,19.1,17.1c-0.1,12.5-11,19-25.3,19c-7.2,0-15.7-1.6-22-4.5V1335L1209.7,1335z"/>
<path class="st0" d="M1281,1326.6c1.7,9.7,9.4,14.6,19.2,14.6c7.3,0,14.1-2.7,19.8-6.7v13.1c-5.4,3.4-13.6,5.4-21.2,5.4
	c-18.6,0-32.3-12-32.3-30.2s13.8-30.4,29.6-30.4c14.4,0,27.1,9.8,27.1,28.4c0,1.9-0.1,4.2-0.3,5.8L1281,1326.6L1281,1326.6z
	 M1281,1316.7h28.8c-1.1-8.7-7.4-12.7-13.9-12.7C1289.5,1304,1282.7,1308,1281,1316.7L1281,1316.7z"/>
<path class="st0" d="M1383.2,1348.7c-5.3,3-12,4.4-18.2,4.4c-18.6,0-32-12.7-32-30.1c0-17.3,14.6-30.5,32.7-30.5
	c6.3,0,12,1.6,16.5,3.8v13.9c-5-3.3-10.7-5.3-16.3-5.3c-11.2,0-18.6,7.9-18.6,18s7.8,17.7,18.8,17.7c6.1,0,12.4-2.1,16.9-5.8
	L1383.2,1348.7L1383.2,1348.7z"/>
<path class="st0" d="M1397,1329.3v-35.6h14.3v33.2c0,5.2,0.8,8.3,2.6,10.2c2.1,2.5,5,3.2,7.7,3.2c5.6,0,11.2-3.2,15.1-7.5v-39.1
	h14.3v58h-14.1v-6.4l-0.2-0.1c-4.9,4.5-11.1,7.8-18.8,7.8c-6.4,0-11.9-2.2-15.4-6.1C1398.7,1343,1397.1,1337.7,1397,1329.3
	L1397,1329.3z"/>
<path class="st0" d="M1467.7,1293.8h14.1v8.1l0.2,0.1c4-5.7,10-8.8,16.8-8.8c1.3,0,2.6,0.1,3.9,0.5v13.7c-1.4-0.3-2.8-0.6-4.7-0.6
	c-6.7,0-12.1,3-16.1,8.6v36.4h-14.3L1467.7,1293.8L1467.7,1293.8z"/>
<path class="st0" d="M1520.1,1265.7c4.9,0,8.8,4,8.8,8.8c0,4.9-4,8.8-8.9,8.8c-5,0-8.8-4-8.8-8.8
	C1511.2,1269.7,1515.1,1265.7,1520.1,1265.7z M1512.9,1293.8h14.3v58h-14.3V1293.8z"/>
<path class="st0" d="M1548.4,1330.8v-24.9h-10.1v-12.1h10.1v-15.4l14.3-2.5v17.9h16.4v12.1h-16.4v22.9c0,6.5,1.2,11.9,7.7,11.9
	c3.1,0,6.4-1.2,8.7-2.5v12.1c-2.6,1.6-7.3,2.7-11.8,2.7c-5,0-10.5-1.6-14.1-5.7C1550.2,1344.2,1548.4,1339.3,1548.4,1330.8
	L1548.4,1330.8z"/>
<path class="st0" d="M1592.8,1377.7l15.4-32.3l-23.9-51.6h15.4l7.9,17.9c3,6.7,5.3,12.1,7.8,18.3h0.2c2.7-6.5,5.6-13.1,8.5-19.4
	l7.5-16.8h14.5l-38.5,83.9H1592.8L1592.8,1377.7z"/>
<path class="st1" d="M1002.3,308c9.7,6.6,18.5,14.4,26,23.7c67.5,84.2,108.1,196,120.2,263l0,0c4.7,26.1,5,45.2,1,53.4
	c18.3-26.9,37.1-57.7,55.5-93.2c0,0,57.6-122.4,16.6-206.3c-5.2-8.9-10.4-17.4-15.8-25.4C1179.9,315.6,1110.9,300.2,1002.3,308
	L1002.3,308z"/>
<path class="st2" d="M946.2,168.2c0,0-4,1.6-10.3,4.3c-26.2,11.8-97,49.4-149,129.9c-1.3,2-2.6,4-3.9,6c20-7.5,39.9-13.5,59.3-17.8
	c4.8-5.7,9.7-11.4,15.1-16.9l0,0c36.8-39.5,91.3-83.8,159.2-97.1C974.9,165.2,946.2,168.2,946.2,168.2L946.2,168.2L946.2,168.2
	L946.2,168.2L946.2,168.2z"/>
<path class="st3" d="M1002.6,802.7c-13.9-8.1-26.5-16.5-38-25.1c-12.1,4.7-24.2,7.2-35.8,6.8c-54.1-1.7-137.7-47-197-120.7
	c5.6,25.6,13.9,45.1,21.3,58.6C764.1,735.5,880.4,869.7,1002.6,802.7L1002.6,802.7z"/>
<path class="st4" d="M1001.3,308.1c-23,1.7-47.6,4.3-74.1,8.4c-45.7,7.7-125.9,27.1-144.9,69.8c-9,18.7-16.9,36.9-23.5,54
	c5,18.6,13.7,42,28.8,68.3c8.4,17.3,33.1,63.1,58.5,89c6,6.2,12.4,11.9,19.1,17.5C868,452.4,986.1,321.1,1001.3,308.1L1001.3,308.1z
	"/>
<radialGradient id="SVGID_1_" cx="707.5864" cy="1046.9355" r="514.9188" gradientTransform="matrix(1 0 0 -1 0 1546.1947)" gradientUnits="userSpaceOnUse">
	<stop  offset="0" style="stop-color:#444443"/>
	<stop  offset="0.23" style="stop-color:#3A3A39"/>
	<stop  offset="0.6" style="stop-color:#222221"/>
	<stop  offset="1" style="stop-color:#010101"/>
</radialGradient>
<path class="st5" d="M865.2,615.2c-6.7-5.5-13.2-11.3-19.1-17.5c-25.4-26-50.2-71.8-58.5-89c-15.1-26.4-23.7-49.7-28.8-68.3
	c-7.8-28.8-6.9-46.5-6.9-46.5c2.2-39.5,16.8-63.1,31.2-85.5c1.3-2,2.6-4,3.9-6c52-80.5,122.7-118,149-129.9
	c6.4-2.9,10.2-4.3,10.3-4.3h0c0,0-384.4,12.3-332.1,237.6c21,90.4,54.5,160.3,88.1,216.5c3.2,5.4,6.7,10.4,10.3,15.4
	c0,0.2,0.1,0.3,0.1,0.3c6,9,12.4,17.6,19.1,25.9c59.3,73.7,142.8,119,197,120.7c11.7,0.3,23.7-2.2,35.8-6.8
	c88.7-33.9,183.8-182.8,183.9-182.9C1015.2,686.1,925.5,665.1,865.2,615.2L865.2,615.2z"/>
<radialGradient id="SVGID_00000179625970056065448940000011475897586714514868_" cx="1242.7524" cy="1206.2908" r="618.3395" gradientTransform="matrix(1 0 0 -1 0 1546.1947)" gradientUnits="userSpaceOnUse">
	<stop  offset="0" style="stop-color:#444443"/>
	<stop  offset="0.23" style="stop-color:#3A3A39"/>
	<stop  offset="0.6" style="stop-color:#222221"/>
	<stop  offset="1" style="stop-color:#010101"/>
</radialGradient>
<path style="fill:url(#SVGID_00000179625970056065448940000011475897586714514868_);" d="M1282.7,201.2
	c-67.3-25.9-178.6-34.3-245.3-27.9c-7.1,0.7-14,1.8-20.8,3.2c-67.8,13.3-122.4,57.6-159.2,97.1l0,0c-5.3,5.6-10.3,11.3-15.1,16.9
	c-6,7.2-11.8,14.4-16.9,21.4c-13.5,18.1-20.7,30.4-20.7,30.4c0.1,0,0.3-0.1,0.5-0.1c-1.6,2.6-3,5.1-4.4,7.5
	c-6.7,12.4-13,24.6-18.6,36.4c19-42.6,99.2-62.1,144.9-69.8c26.6-4.1,51.1-6.7,74.1-8.4c0.1-0.1,0.3-0.3,0.5-0.4
	c0.1,0.1,0.3,0.2,0.5,0.3c108.7-7.8,177.7,7.6,203.5,15.1c7.7,2.2,11.7,3.8,11.7,3.8c68.3,17.9,91.9,112.4,103.7,188.6
	c5.3,34.6-3.9,71.2-3.9,71.2S1498.1,284.1,1282.7,201.2L1282.7,201.2z"/>
<radialGradient id="SVGID_00000004519498341274598430000008590771309778295724_" cx="1144.6726" cy="761.9214" r="551.0432" gradientTransform="matrix(1 0 0 -1 0 1546.1947)" gradientUnits="userSpaceOnUse">
	<stop  offset="0" style="stop-color:#444443"/>
	<stop  offset="0.23" style="stop-color:#3A3A39"/>
	<stop  offset="0.6" style="stop-color:#222221"/>
	<stop  offset="1" style="stop-color:#010101"/>
</radialGradient>
<path style="fill:url(#SVGID_00000004519498341274598430000008590771309778295724_);" d="M1284.4,511.5c-5-33.6-15.7-65.3-27-91.8
	c-0.5-1.3-1.1-2.5-1.6-3.7c-18.2-41.5-35.3-70.2-35.3-70.2c0.4,0.9,0.7,1.8,1.2,2.7c41,83.9-16.6,206.3-16.6,206.3
	c-18.4,35.5-37.2,66.3-55.5,93.2c-69,101.4-130.5,144.5-130.5,144.5c-5.5,3.8-11,7.1-16.5,10.1c-122.2,67-236.3-65.6-249.4-80.4
	l-0.1,0.1c0,0,186,323.4,352.5,152.5c84-86.3,122.2-129.6,155-188.8C1292.7,627.9,1293.2,563.8,1284.4,511.5L1284.4,511.5z"/>
</svg>
