<?xml version="1.0" encoding="utf-8"?>
<!-- Generator: Adobe Illustrator 27.7.0, SVG Export Plug-In . SVG Version: 6.00 Build 0)  -->
<svg version="1.1" id="Capa_1" xmlns="http://www.w3.org/2000/svg" xmlns:xlink="http://www.w3.org/1999/xlink" x="0px" y="0px"
	 viewBox="0 0 2000 1545.5" style="enable-background:new 0 0 2000 1545.5;" xml:space="preserve">
<style type="text/css">
	.st0{fill:#FFFFFF;}
	.st1{fill:url(#SVGID_1_);}
	.st2{fill:url(#SVGID_00000138567094683958672970000008387510921077138060_);}
	.st3{fill:url(#SVGID_00000032613231946823301190000017264741089414299061_);}
	.st4{fill:url(#SVGID_00000065757605633452107590000006919839396268459435_);}
	.st5{fill:url(#SVGID_00000168098641254915661210000000838970519556446378_);}
	.st6{fill:url(#SVGID_00000084515007108009237740000003080001101871914913_);}
	.st7{fill:url(#SVGID_00000059989556043891646450000015067118323884347839_);}
</style>
<path class="st0" d="M246.6,1018.7v33.1h-53.8V1190h-37.3v-138.3h-53.8v-33.1H246.6L246.6,1018.7z"/>
<path class="st0" d="M295.9,1069.1c35,0,66.4,21.1,66.4,62.2c0,41.1-31.3,62.2-66.4,62.2s-66.4-21.1-66.4-62.2
	C229.5,1090.2,261.1,1069.1,295.9,1069.1L295.9,1069.1z M295.9,1099.5c-19.8,0-30.8,13.7-30.8,31.8c0,18.1,11,31.8,30.8,31.8
	c19.8,0,31-13.7,31-31.8C326.9,1113.2,315.9,1099.5,295.9,1099.5z"/>
<path class="st0" d="M426.9,1030.2v42.4H465v28.6h-38.1v46c0,12.2,6.3,17.6,19.3,17.6c8,0,14.8-1.2,21.8-3.9v27.4
	c-9.3,3.2-20.3,5.2-32.3,5.2c-23.3,0-43.3-10.5-43.3-39.7v-52.6h-20.3v-28.6h20.3v-34.3L426.9,1030.2L426.9,1030.2z"/>
<path class="st0" d="M604,1167.5c2,0,4.2-0.2,6.5-1v22.3c-5.5,2-12.5,3.4-19.3,3.4c-12.3,0-21.5-4.4-26.6-13.2
	c-11.8,9.1-25.5,14.5-43.3,14.5c-22.6,0-42.1-12.7-42.1-36c0-29.9,28.8-39.1,52.8-39.1c9.5,0,20,1.2,28.5,3.2v-4.1
	c0-11.8-9.5-19.8-28.3-19.8c-16.5,0-31.3,4.4-42.6,8.8v-29.4c9.8-3.2,28.1-7.9,46.6-7.9c36.1,0,59.1,14.5,59.1,53.1v37.4
	C595.4,1165.9,599.4,1167.6,604,1167.5L604,1167.5z M514.8,1154.8c0,8.8,8.2,14.5,18.8,14.5c9.8,0,19-2.7,27-9.5v-18.4
	c-5.3-1.2-13.3-2.7-20.5-2.7C527.3,1138.7,514.8,1142.8,514.8,1154.8L514.8,1154.8z"/>
<path class="st0" d="M662.3,1011.4V1190h-34.8v-178.7H662.3z"/>
<path class="st0" d="M820.8,1018.2c17.5,0,35,3.7,50.1,11v35c-11.3-8.6-27.6-13.4-43.8-13.4c-30.8,0-61.9,17.1-61.9,58.5
	c-0.2,37.7,31.3,54.3,61.9,54.3c18,0,34.6-4.9,45.1-14.2v36c-15,7.1-32.3,11-50.8,11c-46.8,0-94.7-27.4-94.7-87.1
	C726.8,1046.7,773.9,1018.3,820.8,1018.2L820.8,1018.2z"/>
<path class="st0" d="M980.5,1075.5h36.1l-53.4,131.7c-13.5,32.8-32.3,42.8-51.9,42.8c-6.3,0-12.5-1.2-18.8-2.7v-28.1
	c4.8,1,9.5,1.7,14.3,1.7c12.5,0,22-8.3,28.5-25.7l0.2-0.5l-56.9-119.2h36.8l35,79.3l29.8-79.3L980.5,1075.5z"/>
<path class="st0" d="M1068.7,1021.7v66.3c7.5-8.3,20.5-15.9,39.6-15.9c38.1,0,58.6,30.1,58.6,62.2s-20.5,62.2-58.6,62.2
	c-22.3,0-36.1-10-43.6-20.6v17.1h-30.8v-171.3L1068.7,1021.7L1068.7,1021.7z M1099.7,1100.7c-15.3,0-26.6,9.3-31.3,19.6v27.9
	c4.8,10.3,16,19.6,31.3,19.6c19.8,0,31.6-15.2,31.6-33.5C1131.3,1115.8,1119.5,1100.6,1099.7,1100.7L1099.7,1100.7z"/>
<path class="st0" d="M1244.7,1072.1c49.8,0,65.9,38.4,57.8,73.2h-84.6c4,17.1,22.6,24.2,42.3,24.2c13.8,0,26-2.7,36.3-7.1v26.7
	c-11.3,4.7-26,7.3-44.1,7.3c-38.1,0-69.6-21.3-69.6-62.2C1182.8,1089.9,1217.6,1072.1,1244.7,1072.1L1244.7,1072.1z M1246,1098
	c-14.8,0-27.8,9.1-28.3,25.2h53.6C1272.6,1115.1,1267.8,1098,1246,1098z"/>
<path class="st0" d="M1406.1,1073.1v33.1c-19-3.2-37.3,3.9-44.6,17.9v69h-34.8v-117.5h30.8v17.6
	C1366,1080.2,1383.5,1070.9,1406.1,1073.1L1406.1,1073.1z"/>
<path class="st0" d="M1480.5,1119.1v28.6h-56.6v-28.6H1480.5z"/>
<path class="st0" d="M1574.6,1018.2c20.8,0,41.8,4.9,56.9,13.2v34.3c-14.8-10.3-34.6-15.4-54.1-15.2c-19,0.2-28.5,5.4-28.5,15.9
	c0,29.6,95.9,18.6,95.9,79.6c0,38.4-31.6,50.4-68.4,50.4c-24.3,0-46.8-5.6-64.9-15.4v-35c20,13,42.1,18.1,62.1,18.1
	s32.8-4.1,32.8-16.4c0-32.1-95.9-20-95.9-80.8C1510.5,1033.9,1540,1018.2,1574.6,1018.2L1574.6,1018.2z"/>
<path class="st0" d="M1721.1,1072.1c49.8,0,65.9,38.4,57.8,73.2h-84.6c4,17.1,22.6,24.2,42.3,24.2c13.8,0,26-2.7,36.3-7.1v26.7
	c-11.3,4.7-26,7.3-44.1,7.3c-38.1,0-69.6-21.3-69.6-62.2C1659.1,1089.9,1693.9,1072.1,1721.1,1072.1L1721.1,1072.1z M1722.3,1098
	c-14.8,0-27.8,9.1-28.3,25.2h53.6C1748.9,1115.1,1744.1,1098,1722.3,1098z"/>
<path class="st0" d="M1864.1,1071.8c13.3,0,26.3,2.9,37.1,8.6v29.9c-8.5-5.4-20.5-8.8-32.1-8.8c-19,0-37.3,9.1-37.3,32.8
	c0,22.5,18,32.8,36.8,32.8c12.8,0,25.1-3.4,33.8-8.6v30.1c-11.8,4.9-25.3,7.8-40.6,7.8c-32.8,0-65.6-18.6-65.6-60.4
	C1796.2,1090.9,1830.8,1071.8,1864.1,1071.8L1864.1,1071.8z"/>
<path class="st0" d="M360.6,1262.8h23.5c13.1,0,24.1,2.1,32.7,7.7c11.2,7.2,17.5,19.8,17.5,34.4c0,13.8-5.6,25.7-15.4,33.1
	c-8.8,6.7-20.5,9.5-36.7,9.5h-21.6L360.6,1262.8L360.6,1262.8z M383.5,1334.3c11.1,0,19.1-1.6,25.2-6.1c6.6-4.8,10.9-13,10.9-23.1
	s-4.7-18.8-11.7-23.6c-6.7-4.6-15.2-5.4-24.4-5.4h-8v58.2H383.5L383.5,1334.3z"/>
<path class="st0" d="M449.1,1344.9c-4-2.9-6.4-7.5-6.4-13.2c0-6.3,3-11,7.4-13.9c4.3-2.9,10.2-4,16.1-4c4,0,7.6,0.5,11.1,1.3v-3.4
	c0-3.5-0.9-6.1-2.8-7.9c-2.1-1.9-5.4-2.8-9.7-2.8c-6.9,0-12.9,2.4-17.3,5.2v-12.9c4.6-2.6,11.2-4.7,19.4-4.7
	c7.5,0,14.2,1.7,18.5,5.4c3.9,3.3,6.1,8.2,6.1,15.3v22.1c0,3.2,1.2,5.4,4,5.4c1.1,0,2.2-0.3,3.2-0.8v11.1c-1.7,0.8-4.2,1.4-7,1.4
	c-4.7,0-9.1-1.6-11.8-5.3h-0.2c-3.5,2.8-9.5,5.5-17.1,5.5C457.8,1348.8,453,1347.7,449.1,1344.9L449.1,1344.9z M477.3,1334v-9.7
	c-2.6-0.7-6.1-1.2-8.9-1.2c-5.8,0-11.6,1.9-11.6,7.5c0,4.7,4.1,6.9,9.1,6.9C470.3,1337.5,474.5,1335.9,477.3,1334L477.3,1334z"/>
<path class="st0" d="M513.4,1326.6V1302h-10.1v-12h10.1v-15.3l14.2-2.5v17.8h16.2v12h-16.2v22.7c0,6.5,1.2,11.8,7.6,11.8
	c3,0,6.3-1.2,8.7-2.5v12c-2.6,1.5-7.2,2.7-11.7,2.7c-5,0-10.4-1.5-14-5.6C515.2,1340,513.5,1335.2,513.4,1326.6L513.4,1326.6z"/>
<path class="st0" d="M558.2,1344.9c-4-2.9-6.4-7.5-6.4-13.2c0-6.3,3-11,7.4-13.9s10.2-4,16.1-4c4,0,7.6,0.5,11.1,1.3v-3.4
	c0-3.5-0.9-6.1-2.8-7.9c-2.1-1.9-5.4-2.8-9.7-2.8c-6.9,0-12.9,2.4-17.3,5.2v-12.9c4.6-2.6,11.2-4.7,19.4-4.7
	c7.5,0,14.2,1.7,18.5,5.4c3.9,3.3,6.1,8.2,6.1,15.3v22.1c0,3.2,1.2,5.4,4,5.4c1.1,0,2.2-0.3,3.2-0.8v11.1c-1.7,0.8-4.2,1.4-7,1.4
	c-4.7,0-9.1-1.6-11.8-5.3h-0.2c-3.5,2.8-9.5,5.5-17.1,5.5C566.9,1348.8,562.1,1347.7,558.2,1344.9L558.2,1344.9z M586.4,1334v-9.7
	c-2.6-0.7-6.1-1.2-8.9-1.2c-5.8,0-11.6,1.9-11.6,7.5c0,4.7,4.1,6.9,9.1,6.9C579.4,1337.5,583.6,1335.9,586.4,1334L586.4,1334z"/>
<path class="st0" d="M715.7,1296.7l-11.8,31.2l19.2,19.3l-0.1,0.2h-17.6l-8-8c-4.8,5.4-12.7,9.4-24.3,9.4c-20,0-29.6-12-29.6-24.4
	c0-9.4,5.7-16.8,15.6-22l1.2-0.6l-1.7-1.9c-4.9-5-8.8-10.7-8.8-17.8c0-11.9,9.9-20.7,23.4-20.7s23.2,9.3,23.2,20.7
	c0,8.3-5,14.7-11.8,19.1l-4.1,2.7l13.6,13.7l7.5-20.8L715.7,1296.7L715.7,1296.7z M687.5,1329.4l-18.8-19l-3.1,1.6
	c-5.7,3-8,7.6-8,11.8c0,6.2,5,12.5,15.9,12.5C680.4,1336.4,684.9,1333.6,687.5,1329.4L687.5,1329.4z M668.6,1292.1l3,3.1l4.2-3
	c3.8-2.6,6.2-5.5,6.2-9.7c0-5.3-4-8.7-9.4-8.7c-5.7,0-9.1,3.9-9.1,8.5C663.5,1285.7,665.2,1288.5,668.6,1292.1L668.6,1292.1z"/>
<path class="st0" d="M771,1373.2h-14.2v-83.3h14v3.3l0.2,0.1c3.9-2.7,9-4.7,15.3-4.7c15.1,0,27.5,11.8,27.5,29.7
	s-13.4,30.4-30.1,30.4c-5.2,0-9.5-1.2-12.6-2.7l-0.2,0.1L771,1373.2L771,1373.2z M782.9,1336.9c10.3,0,16.7-7.6,16.7-17.8
	s-6.3-18.4-16.4-18.4c-4.4,0-8.9,1.5-12.3,4.2v28.8C773.9,1335.4,778.2,1336.9,782.9,1336.9L782.9,1336.9z"/>
<path class="st0" d="M827,1289.9h14v8l0.2,0.1c4-5.6,9.9-8.8,16.7-8.8c1.3,0,2.6,0.1,3.9,0.5v13.6c-1.4-0.3-2.8-0.6-4.7-0.6
	c-6.7,0-12,2.9-16,8.5v36.1H827L827,1289.9L827,1289.9z"/>
<path class="st0" d="M898.4,1288.6c17.9,0,31.2,13.1,31.2,30.1c0,17-13.4,30.1-31.2,30.1s-31.2-13.1-31.2-30.1
	C867.1,1301.7,880.5,1288.6,898.4,1288.6z M898.4,1336.3c9.8,0,17.1-7.7,17.1-17.6c0-9.9-7.2-17.6-17.1-17.6s-17.1,7.7-17.1,17.6
	C881.3,1328.6,888.5,1336.3,898.4,1336.3z"/>
<path class="st0" d="M988.5,1344.4c-5.3,2.9-11.9,4.3-18,4.3c-18.5,0-31.8-12.6-31.8-29.8s14.5-30.3,32.5-30.3
	c6.2,0,12,1.5,16.4,3.8v13.8c-5-3.3-10.7-5.3-16.1-5.3c-11.1,0-18.5,7.9-18.5,17.9c0,10,7.7,17.5,18.7,17.5c6.1,0,12.3-2.1,16.8-5.7
	L988.5,1344.4L988.5,1344.4z"/>
<path class="st0" d="M1012.7,1322.5c1.7,9.6,9.4,14.5,19,14.5c7.2,0,14-2.7,19.7-6.7v13c-5.4,3.4-13.5,5.4-21.1,5.4
	c-18.5,0-32.1-11.9-32.1-29.9s13.7-30.2,29.4-30.2c14.3,0,26.9,9.7,26.9,28.2c0,1.9-0.1,4.2-0.3,5.7L1012.7,1322.5L1012.7,1322.5z
	 M1012.7,1312.7h28.6c-1.1-8.7-7.4-12.6-13.8-12.6C1021.1,1300.1,1014.4,1304,1012.7,1312.7L1012.7,1312.7z"/>
<path class="st0" d="M1066.9,1330.8c7,4.2,15.8,6.3,22.1,6.3c6.3,0,10.5-2,10.5-6.1c0-5.8-7.4-5.6-16.1-7.4
	c-11-2.3-18.6-6.3-18.6-16.7c0.1-12,10.7-18.4,24.4-18.4c6.9,0,15.1,1.5,21.3,4.6v13c-7-4.1-15.4-6-21.4-6c-6,0-9.9,1.7-9.9,5.6
	c0,5.5,7.1,5.3,15.8,7.1c11,2.2,18.9,6,18.9,17c-0.1,12.4-10.9,18.8-25.2,18.8c-7.1,0-15.6-1.5-21.9-4.4V1330.8L1066.9,1330.8z"/>
<path class="st0" d="M1125.7,1330.8c7,4.2,15.8,6.3,22.1,6.3c6.3,0,10.5-2,10.5-6.1c0-5.8-7.4-5.6-16.1-7.4
	c-11-2.3-18.6-6.3-18.6-16.7c0.1-12,10.7-18.4,24.4-18.4c6.9,0,15.1,1.5,21.3,4.6v13c-7-4.1-15.4-6-21.4-6c-6,0-9.9,1.7-9.9,5.6
	c0,5.5,7.1,5.3,15.8,7.1c11,2.2,18.9,6,18.9,17c-0.1,12.4-10.9,18.8-25.2,18.8c-7.1,0-15.6-1.5-21.9-4.4V1330.8L1125.7,1330.8z"/>
<path class="st0" d="M1210.1,1330.8c7,4.2,15.8,6.3,22.1,6.3c6.3,0,10.5-2,10.5-6.1c0-5.8-7.4-5.6-16.1-7.4
	c-11-2.3-18.6-6.3-18.6-16.7c0.1-12,10.7-18.4,24.4-18.4c6.9,0,15.1,1.5,21.3,4.6v13c-7-4.1-15.4-6-21.4-6c-6,0-9.9,1.7-9.9,5.6
	c0,5.5,7.1,5.3,15.8,7.1c11,2.2,18.9,6,18.9,17c-0.1,12.4-10.9,18.8-25.2,18.8c-7.1,0-15.6-1.5-21.9-4.4V1330.8L1210.1,1330.8z"/>
<path class="st0" d="M1280.9,1322.5c1.7,9.6,9.4,14.5,19,14.5c7.2,0,14-2.7,19.7-6.7v13c-5.4,3.4-13.5,5.4-21.1,5.4
	c-18.5,0-32.1-11.9-32.1-29.9s13.7-30.2,29.4-30.2c14.3,0,26.9,9.7,26.9,28.2c0,1.9-0.1,4.2-0.3,5.7L1280.9,1322.5L1280.9,1322.5z
	 M1280.9,1312.7h28.6c-1.1-8.7-7.4-12.6-13.8-12.6C1289.3,1300.1,1282.6,1304,1280.9,1312.7L1280.9,1312.7z"/>
<path class="st0" d="M1382.4,1344.4c-5.3,2.9-11.9,4.3-18,4.3c-18.5,0-31.8-12.6-31.8-29.8s14.5-30.3,32.5-30.3
	c6.2,0,12,1.5,16.4,3.8v13.8c-5-3.3-10.7-5.3-16.1-5.3c-11.1,0-18.5,7.9-18.5,17.9c0,10,7.7,17.5,18.7,17.5c6.1,0,12.3-2.1,16.8-5.7
	L1382.4,1344.4L1382.4,1344.4z"/>
<path class="st0" d="M1396.1,1325.2v-35.3h14.2v33c0,5.2,0.8,8.2,2.6,10.2c2.1,2.5,4.9,3.1,7.6,3.1c5.6,0,11.1-3.1,15-7.5v-38.8
	h14.2v57.5h-14v-6.3l-0.2-0.1c-4.8,4.4-11,7.7-18.7,7.7c-6.3,0-11.8-2.2-15.3-6.1C1397.8,1338.8,1396.1,1333.5,1396.1,1325.2
	L1396.1,1325.2z"/>
<path class="st0" d="M1466.2,1289.9h14v8l0.2,0.1c4-5.6,9.9-8.8,16.7-8.8c1.3,0,2.6,0.1,3.9,0.5v13.6c-1.4-0.3-2.8-0.6-4.7-0.6
	c-6.7,0-12,2.9-16,8.5v36.1h-14.2L1466.2,1289.9L1466.2,1289.9z"/>
<path class="st0" d="M1518.3,1262.1c4.8,0,8.8,4,8.8,8.8s-4,8.8-8.9,8.8c-4.9,0-8.8-4-8.8-8.8S1513.3,1262.1,1518.3,1262.1z
	 M1511.1,1289.9h14.2v57.5h-14.2V1289.9z"/>
<path class="st0" d="M1546.3,1326.6V1302h-10.1v-12h10.1v-15.3l14.2-2.5v17.8h16.2v12h-16.2v22.7c0,6.5,1.2,11.8,7.6,11.8
	c3,0,6.3-1.2,8.7-2.5v12c-2.6,1.5-7.2,2.7-11.7,2.7c-5,0-10.4-1.5-14-5.6C1548.1,1340,1546.4,1335.2,1546.3,1326.6L1546.3,1326.6z"
	/>
<path class="st0" d="M1590.4,1373.2l15.3-32.1l-23.8-51.2h15.3l7.9,17.8c2.9,6.7,5.3,12,7.7,18.1h0.2c2.7-6.4,5.6-13,8.4-19.3
	l7.5-16.6h14.4l-38.2,83.3H1590.4L1590.4,1373.2z"/>
<radialGradient id="SVGID_1_" cx="891.1945" cy="1105.5005" r="319.8778" gradientTransform="matrix(1 0 9.774155e-03 -1 44.5192 1546.1947)" gradientUnits="userSpaceOnUse">
	<stop  offset="0" style="stop-color:#9E9D9C"/>
	<stop  offset="0.12" style="stop-color:#8A8988"/>
	<stop  offset="0.35" style="stop-color:#686866"/>
	<stop  offset="0.57" style="stop-color:#50504E"/>
	<stop  offset="0.78" style="stop-color:#424240"/>
	<stop  offset="0.95" style="stop-color:#3D3D3B"/>
</radialGradient>
<path class="st1" d="M1004.2,311.4c9.6,6.6,18.4,14.3,25.8,23.6c67,83.6,107.3,194.5,119.3,261l0,0c4.7,25.9,5,44.9,1,53
	c18.2-26.7,36.9-57.3,55.1-92.5c0,0,57.2-121.5,16.5-204.8c-5.2-8.8-10.4-17.3-15.7-25.3C1180.6,319,1112.1,303.7,1004.2,311.4
	L1004.2,311.4z"/>
<radialGradient id="SVGID_00000062184363677166858020000011792268747089214901_" cx="752.9033" cy="1098.9458" r="370.6283" gradientTransform="matrix(1 0 0 -1 0 1546.1947)" gradientUnits="userSpaceOnUse">
	<stop  offset="0" style="stop-color:#9E9D9C"/>
	<stop  offset="0.12" style="stop-color:#8A8988"/>
	<stop  offset="0.35" style="stop-color:#686866"/>
	<stop  offset="0.57" style="stop-color:#50504E"/>
	<stop  offset="0.78" style="stop-color:#424240"/>
	<stop  offset="0.95" style="stop-color:#3D3D3B"/>
</radialGradient>
<path style="fill:url(#SVGID_00000062184363677166858020000011792268747089214901_);" d="M948.6,172.6c0,0-4,1.5-10.3,4.3
	c-26,11.7-96.3,49-147.9,128.9c-1.3,2-2.6,4-3.9,5.9c19.8-7.5,39.6-13.4,58.9-17.7c4.7-5.6,9.6-11.3,15-16.8l0,0
	c36.5-39.2,90.7-83.2,158-96.4C977.1,169.6,948.6,172.6,948.6,172.6L948.6,172.6L948.6,172.6L948.6,172.6L948.6,172.6z"/>
<radialGradient id="SVGID_00000021825346320425706250000003473578726980908977_" cx="751.4573" cy="976.0939" r="367.2545" gradientTransform="matrix(1 0 0 -1 0 1546.1947)" gradientUnits="userSpaceOnUse">
	<stop  offset="0" style="stop-color:#9E9D9C"/>
	<stop  offset="0.12" style="stop-color:#8A8988"/>
	<stop  offset="0.35" style="stop-color:#686866"/>
	<stop  offset="0.57" style="stop-color:#50504E"/>
	<stop  offset="0.78" style="stop-color:#424240"/>
	<stop  offset="0.95" style="stop-color:#3D3D3B"/>
</radialGradient>
<path style="fill:url(#SVGID_00000021825346320425706250000003473578726980908977_);" d="M1004.6,802.5c-13.8-8-26.3-16.3-37.7-24.9
	c-12,4.6-24,7.1-35.6,6.8c-53.7-1.6-136.6-46.7-195.5-119.8c5.5,25.4,13.8,44.7,21.2,58.1C767.8,735.8,883.3,869,1004.6,802.5
	L1004.6,802.5z"/>
<radialGradient id="SVGID_00000091015271250394199390000001800644166343153056_" cx="715.1176" cy="828.0354" r="438.5366" gradientTransform="matrix(1 0 0 -1 0 1546.1947)" gradientUnits="userSpaceOnUse">
	<stop  offset="0" style="stop-color:#9E9D9C"/>
	<stop  offset="0.12" style="stop-color:#8A8988"/>
	<stop  offset="0.35" style="stop-color:#686866"/>
	<stop  offset="0.57" style="stop-color:#50504E"/>
	<stop  offset="0.78" style="stop-color:#424240"/>
	<stop  offset="0.95" style="stop-color:#3D3D3B"/>
</radialGradient>
<path style="fill:url(#SVGID_00000091015271250394199390000001800644166343153056_);" d="M1003.3,311.5c-22.8,1.7-47.3,4.3-73.6,8.3
	c-45.4,7.7-125,26.9-143.9,69.3c-9,18.6-16.8,36.6-23.3,53.6c5,18.5,13.6,41.6,28.6,67.8c8.3,17.2,32.9,62.6,58.1,88.4
	c5.9,6.1,12.3,11.9,19,17.4C871,454.7,988.2,324.4,1003.3,311.5L1003.3,311.5z"/>
<radialGradient id="SVGID_00000041281052389623581360000002172702427145740687_" cx="503.2637" cy="1227.726" r="374.4358" gradientTransform="matrix(1 0 9.774155e-03 -1 44.5192 1546.1947)" gradientUnits="userSpaceOnUse">
	<stop  offset="0" style="stop-color:#F6F6F6"/>
	<stop  offset="0.18" style="stop-color:#F1F1F1"/>
	<stop  offset="0.36" style="stop-color:#E5E5E5"/>
	<stop  offset="0.54" style="stop-color:#D0D0D0"/>
	<stop  offset="0.73" style="stop-color:#B3B3B3"/>
	<stop  offset="0.91" style="stop-color:#8F8F8F"/>
	<stop  offset="1" style="stop-color:#7B7B7B"/>
</radialGradient>
<path style="fill:url(#SVGID_00000041281052389623581360000002172702427145740687_);" d="M868.2,616.3c-6.7-5.5-13.1-11.2-19-17.4
	c-25.2-25.8-49.8-71.2-58.1-88.4c-14.9-26.2-23.6-49.3-28.6-67.8c-7.8-28.6-6.9-46.1-6.9-46.1c2.2-39.2,16.6-62.7,31-84.8
	c1.3-2,2.6-4,3.9-5.9C842.1,226,912.3,188.7,938.4,177c6.4-2.9,10.1-4.2,10.3-4.3h0c0,0-381.5,12.2-329.7,235.9
	c20.8,89.7,54.1,159.1,87.5,214.9c3.2,5.3,6.7,10.4,10.3,15.3c0,0.2,0.1,0.3,0.1,0.3c5.9,8.9,12.3,17.4,19,25.7
	c58.8,73.1,141.8,118.1,195.5,119.8c11.6,0.3,23.5-2.2,35.6-6.8c88-33.7,182.5-181.5,182.5-181.5
	C1017.1,686.8,928,665.9,868.2,616.3L868.2,616.3z"/>
<radialGradient id="SVGID_00000119086663541316781270000000487023880987891870_" cx="1114.4707" cy="1360.7473" r="306.431" gradientTransform="matrix(1 0 0 -1 0 1546.1947)" gradientUnits="userSpaceOnUse">
	<stop  offset="0" style="stop-color:#F6F6F6"/>
	<stop  offset="0.16" style="stop-color:#F1F1F1"/>
	<stop  offset="0.35" style="stop-color:#E3E3E3"/>
	<stop  offset="0.54" style="stop-color:#CCCCCC"/>
	<stop  offset="0.75" style="stop-color:#ACACAC"/>
	<stop  offset="0.96" style="stop-color:#848484"/>
	<stop  offset="1" style="stop-color:#7B7B7B"/>
</radialGradient>
<path style="fill:url(#SVGID_00000119086663541316781270000000487023880987891870_);" d="M1282.6,205.4
	c-66.8-25.7-177.3-34-243.5-27.7c-7,0.7-13.9,1.8-20.6,3.1c-67.3,13.2-121.5,57.2-158,96.4l0,0c-5.3,5.5-10.2,11.2-15,16.8
	c-6,7.1-11.7,14.3-16.8,21.3c-13.4,17.9-20.5,30.2-20.5,30.2c0.1,0,0.3-0.1,0.5-0.1c-1.5,2.6-3,5.1-4.4,7.5
	c-6.7,12.3-12.9,24.4-18.5,36.1c18.8-42.3,98.5-61.6,143.9-69.3c26.4-4,50.8-6.7,73.6-8.3c0.1-0.1,0.3-0.3,0.5-0.4
	c0.1,0.1,0.3,0.2,0.5,0.3c107.9-7.8,176.3,7.5,202,15c7.6,2.2,11.6,3.8,11.6,3.8c67.8,17.8,91.2,111.5,102.9,187.2
	c5.3,34.3-3.9,70.7-3.9,70.7S1496.4,287.7,1282.6,205.4L1282.6,205.4z"/>
<radialGradient id="SVGID_00000139269803796233711410000002504038412267100572_" cx="961.6572" cy="883.5573" r="264.8378" gradientTransform="matrix(1 0 9.774155e-03 -1 44.5192 1546.1947)" gradientUnits="userSpaceOnUse">
	<stop  offset="0" style="stop-color:#F6F6F6"/>
	<stop  offset="0.29" style="stop-color:#F3F3F3"/>
	<stop  offset="0.46" style="stop-color:#EBEBEB"/>
	<stop  offset="0.6" style="stop-color:#DCDCDC"/>
	<stop  offset="0.73" style="stop-color:#C8C8C8"/>
	<stop  offset="0.84" style="stop-color:#AEAEAE"/>
	<stop  offset="0.95" style="stop-color:#8E8E8E"/>
	<stop  offset="1" style="stop-color:#7B7B7B"/>
</radialGradient>
<path style="fill:url(#SVGID_00000139269803796233711410000002504038412267100572_);" d="M1284.3,513.4c-5-33.3-15.6-64.8-26.8-91.1
	c-0.5-1.3-1.1-2.5-1.6-3.7c-18.1-41.2-35.1-69.6-35.1-69.6c0.4,0.9,0.7,1.8,1.2,2.7c40.7,83.3-16.5,204.8-16.5,204.8
	c-18.3,35.2-36.9,65.8-55.1,92.5c-68.5,100.7-129.5,143.4-129.5,143.4c-5.4,3.8-10.9,7-16.3,10c-121.3,66.5-234.5-65.2-247.6-79.8
	l-0.1,0.1c0,0,184.6,321,349.9,151.4c83.4-85.6,121.3-128.6,153.9-187.4C1292.6,628.9,1293,565.3,1284.3,513.4L1284.3,513.4z"/>
</svg>
